<svg xmlns="http://www.w3.org/2000/svg" viewBox="0 0 360 100">
  <rect x="44" y="0" width="3" height="74" fill="#3d4a55"/>
  <rect x="316" y="6" width="3" height="68" fill="#3d4a55"/>
  <rect x="58" y="54" width="250" height="20" fill="#f7f2e6"/>
  <g fill="#e8b04b">
    <rect x="104" y="12" width="26" height="44" rx="3"/>
    <rect x="152" y="12" width="26" height="44" rx="3"/>
    <rect x="200" y="12" width="26" height="44" rx="3"/>
    <rect x="248" y="12" width="26" height="44" rx="3"/>
  </g>
  <g fill="#14425c">
    <rect x="104" y="12" width="26" height="9" rx="3"/>
    <rect x="152" y="12" width="26" height="9" rx="3"/>
    <rect x="200" y="12" width="26" height="9" rx="3"/>
    <rect x="248" y="12" width="26" height="9" rx="3"/>
  </g>
  <rect x="14" y="74" width="332" height="7" fill="#f7f2e6"/>
  <path d="M14 81h332l-26 19H40Z" fill="#14425c"/>
  <g fill="#52b7c9">
    <rect x="70" y="60" width="9" height="8"/><rect x="88" y="60" width="9" height="8"/>
    <rect x="106" y="60" width="9" height="8"/><rect x="124" y="60" width="9" height="8"/>
    <rect x="142" y="60" width="9" height="8"/><rect x="160" y="60" width="9" height="8"/>
    <rect x="178" y="60" width="9" height="8"/><rect x="196" y="60" width="9" height="8"/>
    <rect x="214" y="60" width="9" height="8"/><rect x="232" y="60" width="9" height="8"/>
    <rect x="250" y="60" width="9" height="8"/><rect x="268" y="60" width="9" height="8"/>
    <rect x="286" y="60" width="9" height="8"/>
  </g>
</svg>
